<?xml version="1.0" encoding="utf-8"?>
<!-- Generator: Adobe Illustrator 16.0.4, SVG Export Plug-In . SVG Version: 6.00 Build 0)  -->
<!DOCTYPE svg PUBLIC "-//W3C//DTD SVG 1.1//EN" "http://www.w3.org/Graphics/SVG/1.1/DTD/svg11.dtd">
<svg version="1.1" id="Ebene_1" xmlns="http://www.w3.org/2000/svg" xmlns:xlink="http://www.w3.org/1999/xlink" x="0px" y="0px"
	 width="36.25px" height="36.5px" viewBox="0 0 36.25 36.5" enable-background="new 0 0 36.25 36.5" xml:space="preserve">
<g>
	<path fill="#F3BA10" d="M27.442,20.842l0.014,0.014"/>
	<path fill="#F3BA10" d="M28.572,19.584l-0.02-0.019"/>
	<path fill="#F3BA10" d="M35.716,5.658c-0.3-0.868-1.469-0.239-1.469-0.239l-4.042,1.798l3.953-4.014c0,0,1.017-0.718,0.27-1.407
		C33.679,1.106,32.9,2.065,32.9,2.065l-4.072,4.073c0,0,1.168-2.427,1.706-3.474c0.538-1.048,0.778-2.067,0.031-2.247
		c-0.751-0.18-1.049,0.629-1.049,0.629l-2.456,5.571c0,0-5.881-6.128-15.068,6.166c0.056,0.033,0.115,0.058,0.163,0.105l3.127,3.035
		c0.339,0.329,0.347,0.869,0.019,1.207c-0.329,0.337-0.869,0.347-1.207,0.018l-3.086-2.995C1.618,27.56,0.025,33.759,0.916,34.918
		l0.356,0.44c0.742,0.574,3.569,0.122,9.042-2.74l-2.168-2.193c0,0-0.761-0.587-0.173-1.304c0.588-0.715,1.347,0.052,1.347,0.052
		l2.576,2.591c2.862-1.595,6.339-3.767,10.511-6.69c2.136-1.496,3.779-2.911,5.035-4.231l-3.4-3.438c0,0-0.769-0.577-0.191-1.301
		c0.579-0.724,1.348,0.032,1.348,0.032l3.354,3.429c5.119-6.386,1.076-10.289,1.076-10.289l4.979-2.24
		C34.607,7.037,36.014,6.526,35.716,5.658z M16.584,25.524c-0.256,0.257-0.704,0.229-0.999-0.064l-3.761-3.729
		c-0.295-0.294-0.327-0.74-0.071-0.999c0.256-0.258,0.703-0.231,0.998,0.063l3.761,3.73C16.809,24.817,16.841,25.266,16.584,25.524z
		"/>
</g>
</svg>
