<?xml version="1.0" encoding="utf-8"?>
<!-- Generator: Adobe Illustrator 16.0.4, SVG Export Plug-In . SVG Version: 6.00 Build 0)  -->
<!DOCTYPE svg PUBLIC "-//W3C//DTD SVG 1.1//EN" "http://www.w3.org/Graphics/SVG/1.1/DTD/svg11.dtd">
<svg version="1.1" id="Ebene_1" xmlns="http://www.w3.org/2000/svg" xmlns:xlink="http://www.w3.org/1999/xlink" x="0px" y="0px"
	 width="139px" height="138px" viewBox="0 0 139 138" enable-background="new 0 0 139 138" xml:space="preserve">
<path fill="#F9B20C" d="M69.75,2C33.161,2,3.5,31.661,3.5,68.25s29.661,66.25,66.25,66.25S136,104.839,136,68.25S106.339,2,69.75,2z
	 M69.75,34.5C77.068,34.5,83,40.432,83,47.75S77.068,61,69.75,61S56.5,55.068,56.5,47.75S62.432,34.5,69.75,34.5z M86,102H54.5V81.5
	h0.038c0.394-8.348,7.267-15,15.712-15s15.318,6.652,15.712,15H86V102z"/>
</svg>
